<svg xmlns="http://www.w3.org/2000/svg" viewBox="0 0 200 200" width="200" height="200">
  <rect width="200" height="200" fill="#eef8f0"/>
  <g transform="translate(100 102)">
    <rect x="-30" y="-58" width="60" height="14" rx="3" fill="#c9a14a"/>
    <rect x="-26" y="-46" width="52" height="10" rx="2" fill="#d9d9d9"/>
    <path d="M-30 -36 h60 v74 a14 14 0 0 1 -14 14 h-32 a14 14 0 0 1 -14 -14 z" fill="#9ed8ad" opacity="0.55"/>
    <path d="M-30 4 h60 v34 a14 14 0 0 1 -14 14 h-32 a14 14 0 0 1 -14 -14 z" fill="#3a9d5d" opacity="0.85"/>
    <rect x="-30" y="-36" width="14" height="88" rx="6" fill="#ffffff" opacity="0.3"/>
  </g>
  <text x="100" y="186" text-anchor="middle" font-family="Arial" font-size="12" fill="#2f7c4a">Golden Triangle Peptides</text>
</svg>
